<svg aria-hidden="true" style="position: absolute; width: 0; height: 0; overflow: hidden;" version="1.1" xmlns="http://www.w3.org/2000/svg" xmlns:xlink="http://www.w3.org/1999/xlink">
<defs>
<symbol id="icon-icon_buildwebsite" viewBox="0 0 38 32">
<title>icon_buildwebsite</title>
<path stroke-width="0.6095" stroke-miterlimit="4" stroke-linecap="butt" stroke-linejoin="miter" d="M34.788 0.305h-31.825c-1.469 0.003-2.658 1.195-2.658 2.665 0 0 0 0 0 0v-0 26.061c0 0 0 0 0 0 0 1.469 1.189 2.661 2.658 2.665h31.864c1.469-0.003 2.658-1.195 2.658-2.665 0-0 0-0 0-0v0-26.061c-0.019-1.476-1.219-2.665-2.698-2.665v0zM11.721 2.539c0.001 0 0.002 0 0.003 0 0.671 0 1.215 0.544 1.215 1.215s-0.544 1.215-1.215 1.215c-0.671 0-1.215-0.544-1.215-1.215v0c0-0 0-0.001 0-0.001 0-0.67 0.542-1.213 1.212-1.214h0zM8.007 2.539c0.001 0 0.003 0 0.004 0 0.671 0 1.215 0.544 1.215 1.215s-0.544 1.215-1.215 1.215c-0.671 0-1.215-0.544-1.215-1.215v0c-0-0.006-0-0.013-0-0.020 0-0.66 0.535-1.195 1.195-1.195 0.006 0 0.012 0 0.018 0h-0.001zM4.254 2.539c0.001 0 0.002 0 0.003 0 0.671 0 1.215 0.544 1.215 1.215s-0.544 1.215-1.215 1.215c-0.671 0-1.215-0.544-1.215-1.215v0c0-0 0-0.001 0-0.001 0-0.67 0.542-1.213 1.212-1.214h0zM35.179 28.992c0 0 0 0 0 0.001 0 0.216-0.175 0.391-0.391 0.391h-31.825c-0.216-0-0.391-0.175-0.391-0.391 0-0 0-0 0-0.001v0-21.437h32.646v21.436z"></path>
<path stroke-width="0.6095" stroke-miterlimit="4" stroke-linecap="butt" stroke-linejoin="miter" d="M19.87 21.886h10.201c0.8-0.012 1.445-0.657 1.457-1.456v-8.311c-0.012-0.8-0.657-1.445-1.456-1.457h-10.202c-0.8 0.012-1.445 0.658-1.457 1.456v8.311c0.012 0.8 0.658 1.445 1.456 1.457h0.001zM27.824 13.024c0.5 0 0.906 0.406 0.906 0.906s-0.406 0.906-0.906 0.906c-0.5 0-0.906-0.406-0.906-0.906v0c-0.001-0.012-0.001-0.026-0.001-0.040 0-0.479 0.388-0.866 0.866-0.866 0.014 0 0.028 0 0.042 0.001l-0.002-0zM20.973 18.971l2.678-4.254c0.036-0.062 0.102-0.103 0.177-0.103s0.142 0.041 0.177 0.102l0.001 0.001 1.654 2.206c0.046 0.059 0.117 0.096 0.196 0.096 0.060 0 0.115-0.021 0.158-0.057l-0 0 0.709-0.67c0.043-0.035 0.098-0.056 0.158-0.056 0.080 0 0.15 0.037 0.196 0.095l0 0.001 1.89 2.639c0.028 0.037 0.045 0.083 0.045 0.133 0 0.123-0.099 0.222-0.222 0.222-0.007 0-0.014-0-0.020-0.001l0.001 0h-7.6c-0.125-0.013-0.222-0.118-0.222-0.245 0-0.040 0.009-0.077 0.026-0.11l-0.001 0.001z"></path>
<path stroke-width="0.6095" stroke-miterlimit="4" stroke-linecap="butt" stroke-linejoin="miter" d="M7.256 12.972h8.074c0.631 0 1.143-0.512 1.143-1.143s-0.512-1.143-1.143-1.143h-8.074c-0.631 0-1.143 0.512-1.143 1.143s0.512 1.143 1.143 1.143v0z"></path>
<path stroke-width="0.6095" stroke-miterlimit="4" stroke-linecap="butt" stroke-linejoin="miter" d="M7.256 17.398h8.074c0.631 0 1.143-0.512 1.143-1.143s-0.512-1.143-1.143-1.143h-8.074c-0.631 0-1.143 0.512-1.143 1.143s0.512 1.143 1.143 1.143v0z"></path>
<path stroke-width="0.6095" stroke-miterlimit="4" stroke-linecap="butt" stroke-linejoin="miter" d="M7.256 21.864h8.074c0.631 0 1.143-0.512 1.143-1.143s-0.512-1.143-1.143-1.143h-8.074c-0.631 0-1.143 0.512-1.143 1.143s0.512 1.143 1.143 1.143v0z"></path>
<path stroke-width="0.6095" stroke-miterlimit="4" stroke-linecap="butt" stroke-linejoin="miter" d="M7.303 26.291h23.145c0.631 0 1.143-0.512 1.143-1.143s-0.512-1.143-1.143-1.143h-23.145c-0.631 0-1.143 0.512-1.143 1.143s0.512 1.143 1.143 1.143v0z"></path>
</symbol>
<symbol id="icon-icon_performance" viewBox="0 0 38 32">
<title>icon_performance</title>
<path stroke-width="0.6059" stroke-miterlimit="4" stroke-linecap="butt" stroke-linejoin="miter" d="M35.309 6.051c-0.003-0.542-0.27-1.022-0.678-1.318l-0.005-0.003c-0.445-0.333-1.007-0.533-1.615-0.533-0.028 0-0.055 0-0.082 0.001l0.004-0h-9.737l0.475 1.359c0.050 0.197 0.104 0.362 0.168 0.522l-0.010-0.028h9.184v13.651h-28.344v-13.651h9.184c0-0.185 0.078-0.371 0.078-0.494l0.557-1.359h-9.818c-1.31 0.003-2.372 0.831-2.375 1.853v15.504h33.015z"></path>
<path stroke-width="0.6059" stroke-miterlimit="4" stroke-linecap="butt" stroke-linejoin="miter" d="M37.133 29.223l-2.306-4.88h-32.050l-2.307 4.88c-0.092 0.191-0.145 0.415-0.145 0.651 0 0.403 0.156 0.769 0.41 1.043l-0.001-0.001c0.453 0.48 1.094 0.779 1.805 0.779 0.029 0 0.059-0 0.088-0.002l-0.004 0h32.281c0.048 0.003 0.105 0.005 0.162 0.005 0.701 0 1.334-0.288 1.788-0.753l0-0c0.265-0.274 0.429-0.649 0.429-1.061 0-0.24-0.056-0.468-0.154-0.67l0.004 0.009zM14.38 29.903l1-2.038h6.841l1 2.038z"></path>
<path stroke-width="0.6059" stroke-miterlimit="4" stroke-linecap="butt" stroke-linejoin="miter" d="M18.849 0.491c-0.864 1.095-1.575 2.364-2.070 3.736l-0.030 0.094h4.262c-0.563-1.465-1.292-2.73-2.185-3.86l0.023 0.031z"></path>
<path stroke-width="0.6059" stroke-miterlimit="4" stroke-linecap="butt" stroke-linejoin="miter" d="M20.49 13.401c0.68-1.297 1.050-3.397 1.050-5.745 0-0.005 0-0.012 0-0.018 0-1.034-0.181-2.026-0.513-2.945l0.019 0.060h-4.571c-0.285 0.862-0.463 1.856-0.494 2.888l-0 0.016c0 2.347 0.432 4.386 1.050 5.745zM17.834 6.606c0.253-0.253 0.602-0.409 0.988-0.409 0.772 0 1.398 0.626 1.398 1.398s-0.626 1.398-1.398 1.398c-0.386 0-0.735-0.156-0.988-0.409v0c-0.253-0.253-0.409-0.602-0.409-0.988s0.156-0.735 0.409-0.988v0z"></path>
<path stroke-width="0.6059" stroke-miterlimit="4" stroke-linecap="butt" stroke-linejoin="miter" d="M22.751 10.371c-0.185 1.482-0.494 2.841-0.988 3.83l-0.061 0.124c0.494 0.68 0.926 1.297 0.926 1.297s1.297-2.965 1.235-3.892c-0.134-0.615-0.549-1.111-1.101-1.354l-0.012-0.005z"></path>
<path stroke-width="0.6059" stroke-miterlimit="4" stroke-linecap="butt" stroke-linejoin="miter" d="M13.894 11.73c-0.125 0.926 1.236 3.892 1.236 3.892s0.432-0.556 0.926-1.297l-0.061-0.124c-0.535-1.119-0.889-2.421-0.987-3.795l-0.002-0.035c-0.592 0.208-1.025 0.724-1.111 1.35l-0.001 0.009z"></path>
<path stroke-width="0.6059" stroke-miterlimit="4" stroke-linecap="butt" stroke-linejoin="miter" d="M18.831 17.615c0.167-0.32 0.334-0.708 0.474-1.107l0.020-0.065c0.124 0.309 0.247 0.556 0.247 0.556s0.556-1.050 0.556-1.421c0.002-0.017 0.002-0.036 0.002-0.056 0-0.323-0.243-0.588-0.556-0.624l-0.003-0h-1.545c-0.315 0.037-0.557 0.303-0.557 0.625 0 0.019 0.001 0.038 0.003 0.057l-0-0.002c0 0.371 0.556 1.421 0.556 1.421s0.124-0.247 0.247-0.556c0.185 0.432 0.556 1.174 0.556 1.174z"></path>
<path stroke-width="0.6059" stroke-miterlimit="4" stroke-linecap="butt" stroke-linejoin="miter" d="M12.79 18.431c-0.221-0.040-0.476-0.063-0.735-0.063-0.054 0-0.108 0.001-0.161 0.003l0.008-0c-1.777 0-3.199 0.556-3.199 1.174-0.638 0.005-1.248 0.117-1.815 0.32l0.039-0.012h23.811c-0.691-0.274-1.492-0.433-2.329-0.433-0.024 0-0.047 0-0.071 0l0.004-0c-0.178-0.618-1.51-1.050-3.199-1.050-0.054-0.003-0.117-0.004-0.181-0.004-0.25 0-0.495 0.024-0.732 0.069l0.024-0.004c-0.356-0.494-1.599-0.864-3.11-0.864-0.073-0.003-0.159-0.005-0.245-0.005-0.881 0-1.715 0.207-2.453 0.576l0.032-0.014c-0.723-0.352-1.573-0.558-2.471-0.558-0.069 0-0.137 0.001-0.205 0.004l0.010-0c-1.422-0.001-2.666 0.37-3.022 0.864z"></path>
</symbol>
<symbol id="icon-icon_responsive" viewBox="0 0 38 32">
<title>icon_responsive</title>
<path stroke-width="0.6095" stroke-miterlimit="4" stroke-linecap="butt" stroke-linejoin="miter" d="M29.398 28.322h0.914v0.914h-0.914v-0.914z"></path>
<path stroke-width="0.6095" stroke-miterlimit="4" stroke-linecap="butt" stroke-linejoin="miter" d="M36.101 9.922h-4.142v-7.903c0-0.012 0.001-0.027 0.001-0.042 0-0.907-0.722-1.646-1.622-1.673l-0.002-0h-28.406c-0.903 0.028-1.625 0.766-1.625 1.674 0 0.014 0 0.029 0.001 0.043l-0-0.002v21.276c-0 0.013-0.001 0.028-0.001 0.043 0 0.906 0.72 1.644 1.62 1.672l0.003 0 10.64-0.021v3.333h-1.582v1.254h5.142v1.142c-0 0.007-0 0.016-0 0.025 0 0.516 0.411 0.937 0.923 0.953l0.001 0h6.457c0.514-0.016 0.925-0.437 0.925-0.953 0-0.009-0-0.017-0-0.025l0 0.001v-0.305h11.668c0.77-0.023 1.385-0.652 1.385-1.425 0-0.013-0-0.026-0.001-0.040l0 0.002v-17.563c0-0.002 0-0.005 0-0.008 0-0.398-0.154-0.759-0.406-1.029l0.001 0.001c-0.245-0.263-0.593-0.427-0.979-0.429h-0zM1.926 24.383v-0.627c-0.243-0.011-0.435-0.21-0.435-0.454 0-0.002 0-0.004 0-0.007v0-21.276c-0-0.003-0-0.006-0-0.010 0-0.244 0.195-0.443 0.437-0.45h28.404c0.243 0.007 0.438 0.206 0.438 0.45 0 0.003-0 0.007-0 0.010v-0.001 7.903h-7.327c-0.77 0.023-1.385 0.652-1.385 1.425 0 0.013 0 0.027 0.001 0.040l-0-0.002v5.224l-5.040-0.025c-0.266 0.001-0.505 0.115-0.673 0.296l-0.001 0.001c-0.17 0.184-0.274 0.43-0.274 0.702 0 0.004 0 0.009 0 0.013v-0.001l0.049 6.134-14.194 0.027zM13.753 28.322v-3.335l2.373-0.005v3.34h-2.373zM23.246 30.44h-5.933v-5.46h0.003l-0.003-0.36v-6.751l5.933 0.003v12.568zM36.299 28.95c0 0.001 0 0.002 0 0.003 0 0.111-0.088 0.202-0.197 0.206h-11.669v-11.568c0-0.007 0-0.016 0-0.024 0-0.517-0.411-0.937-0.924-0.953l-0.001-0h-0.262v-5.227c0-0.001-0-0.002-0-0.003 0-0.111 0.088-0.202 0.197-0.206h12.658c0.11 0.005 0.198 0.095 0.198 0.206 0 0.001 0 0.002-0 0.003v-0z"></path>
<path stroke-width="0.6095" stroke-miterlimit="4" stroke-linecap="butt" stroke-linejoin="miter" d="M19.833 29.236h0.914v0.914h-0.914v-0.914z"></path>
</symbol>
<symbol id="icon-icon_UX" viewBox="0 0 33 32">
<title>icon_UX</title>
<path d="M20.956 6.608h7.836v5.808h-7.836v-5.808z"></path>
<path d="M12.301 6.608h7.734v5.808h-7.734v-5.808z"></path>
<path d="M3.868 6.608h7.548v5.808h-7.548v-5.808z"></path>
<path d="M11.553 20.337h17.239v0.528h-17.239v-0.528z"></path>
<path d="M11.553 21.921h17.239v0.528h-17.239v-0.528z"></path>
<path d="M11.553 23.505h17.239v0.528h-17.239v-0.528z"></path>
<path d="M11.553 25.089h17.239v0.528h-17.239v-0.528z"></path>
<path d="M11.553 26.673h17.239v0.528h-17.239v-0.528z"></path>
<path d="M11.553 15.585h17.239v0.528h-17.239v-0.528z"></path>
<path d="M11.553 17.169h17.239v0.528h-17.239v-0.528z"></path>
<path d="M11.553 18.753h17.239v0.528h-17.239v-0.528z"></path>
<path d="M11.553 14h17.239v0.528h-17.239v-0.528z"></path>
<path d="M3.868 14h7.548v5.808h-7.548v-5.808z"></path>
<path d="M3.868 21.393h7.548v5.808h-7.548v-5.808z"></path>
<path d="M3.562 2.285c0 0.278-0.225 0.503-0.503 0.503s-0.503-0.225-0.503-0.503c0-0.278 0.225-0.503 0.503-0.503s0.503 0.225 0.503 0.503z"></path>
<path d="M5.071 2.285c0 0.278-0.225 0.503-0.503 0.503s-0.503-0.225-0.503-0.503c0-0.278 0.225-0.503 0.503-0.503s0.503 0.225 0.503 0.503z"></path>
<path d="M6.581 2.285c0 0.278-0.225 0.503-0.503 0.503s-0.503-0.225-0.503-0.503c0-0.278 0.225-0.503 0.503-0.503s0.503 0.225 0.503 0.503z"></path>
<path d="M0.159 31.841h32.315v-31.682h-32.315zM3.636 31.313l0.986-1.335h23.843l0.986 1.335zM31.969 31.313h-1.881l-1.377-1.863h-24.337l-1.377 1.863h-2.333v-26.907h6.736l3.557-3.72h21.013zM10.243 0.687l-3.052 3.192h-6.527v-3.192z"></path>
<path d="M11.063 2.453h18.858v0.528h-18.858v-0.528z"></path>
</symbol>
<symbol id="icon-icon_logo-large" viewBox="0 0 20 32">
<title>icon_logo-large</title>
<path d="M12.768 0l-8.88 18.835h1.952c0.29 0 0.394-0.608 9.494-18.835h4.397c-9.965 19.004-10.868 19.769-10.868 19.769l0.486 0.788 0.381 0.701 5.905 10.742s-3.918-5.707-6.312-8.301c-1.242-1.241-2.062-2.518-3.791 0s-5.532 8.301-5.532 8.301v0-32.001z"></path>
</symbol>
<symbol id="icon-icon_logo-small" viewBox="0 0 20 32">
<title>icon_logo-small</title>
<path d="M12.768 0l-8.88 18.835h1.952c0.29 0 0.395-0.608 9.494-18.835h4.397c-9.965 19.004-10.868 19.769-10.868 19.769l0.486 0.789 0.381 0.701 5.905 10.74s-3.918-5.706-6.311-8.3c-1.242-1.242-2.061-2.518-3.791 0s-5.533 8.3-5.533 8.3v0-32z"></path>
</symbol>
<symbol id="icon-twitter" viewBox="0 0 30 32">
<title>twitter</title>
<path d="M28.928 7.296q-1.184 1.728-2.88 2.976 0 0.256 0 0.736 0 2.336-0.672 4.64t-2.048 4.448-3.296 3.744-4.608 2.624-5.792 0.96q-4.832 0-8.832-2.592 0.608 0.064 1.376 0.064 4.032 0 7.168-2.464-1.888-0.032-3.36-1.152t-2.048-2.848q0.608 0.096 1.088 0.096 0.768 0 1.536-0.192-2.016-0.416-3.328-1.984t-1.312-3.68v-0.064q1.216 0.672 2.624 0.736-1.184-0.8-1.888-2.048t-0.704-2.752q0-1.568 0.8-2.912 2.176 2.656 5.248 4.256t6.656 1.76q-0.16-0.672-0.16-1.312 0-2.4 1.696-4.064t4.064-1.696q2.528 0 4.224 1.824 1.952-0.384 3.68-1.408-0.672 2.048-2.56 3.2 1.664-0.192 3.328-0.896z"></path>
</symbol>
<symbol id="icon-facebook" viewBox="0 0 18 32">
<title>facebook</title>
<path d="M17.12 0.224v4.704h-2.784q-1.536 0-2.080 0.64t-0.544 1.92v3.392h5.248l-0.704 5.28h-4.544v13.568h-5.472v-13.568h-4.544v-5.28h4.544v-3.904q0-3.328 1.856-5.152t4.96-1.824q2.624 0 4.064 0.224z"></path>
</symbol>
<symbol id="icon-behance" viewBox="0 0 37 32">
<title>behance</title>
<path d="M32.992 6.048h-9.12v2.208h9.12v-2.208zM28.512 13.664q-1.632 0-2.624 0.928t-1.088 2.56h7.264q-0.32-3.488-3.552-3.488zM28.8 24.096q1.12 0 2.176-0.576t1.344-1.536h3.936q-1.76 5.472-7.616 5.472-3.808 0-6.080-2.336t-2.24-6.208q0-3.712 2.304-6.176t6.016-2.464q2.464 0 4.288 1.216t2.752 3.2 0.896 4.448q0 0.288-0.032 0.832h-11.744q0 1.984 1.024 3.072t2.976 1.056zM4.96 23.2h5.28q3.648 0 3.648-2.976 0-3.2-3.552-3.2h-5.376v6.176zM4.96 13.632h4.992q1.408 0 2.208-0.672t0.832-2.016q0-2.56-3.392-2.56h-4.64v5.248zM0 4.544h10.624q1.536 0 2.752 0.256t2.272 0.832 1.6 1.728 0.544 2.752q0 3.232-3.072 4.704 2.048 0.544 3.072 2.048t1.056 3.648q0 1.312-0.448 2.432t-1.184 1.856-1.76 1.248-2.144 0.768-2.4 0.224h-10.912v-22.496z"></path>
</symbol>
<symbol id="icon-linkedin" viewBox="0 0 29 32">
<title>linkedin</title>
<path d="M6.528 4.864q0 1.28-0.928 2.176t-2.4 0.896q-1.408 0-2.304-0.896t-0.896-2.176q0-1.344 0.896-2.208t2.368-0.864 2.336 0.864 0.928 2.208zM0.192 30.144v-19.776h6.144v19.776h-6.144zM9.984 16.704q0-2.752-0.128-6.336h5.312l0.32 2.752h0.128q1.92-3.2 6.080-3.2 3.2 0 5.152 2.144t1.952 6.368v11.712h-6.144v-10.944q0-4.288-3.136-4.288-2.24 0-3.136 2.304-0.192 0.384-0.192 1.536v11.392h-6.208v-13.44z"></path>
</symbol>
<symbol id="icon-navigate_before" viewBox="0 0 24 24">
<title>navigate_before</title>
<path d="M15.422 7.406l-4.594 4.594 4.594 4.594-1.406 1.406-6-6 6-6z"></path>
</symbol>
<symbol id="icon-navigate_next" viewBox="0 0 24 24">
<title>navigate_next</title>
<path d="M9.984 6l6 6-6 6-1.406-1.406 4.594-4.594-4.594-4.594z"></path>
</symbol>
</defs>
</svg>
