<?xml version="1.0" standalone="no"?>
<!DOCTYPE svg PUBLIC "-//W3C//DTD SVG 20010904//EN"
 "http://www.w3.org/TR/2001/REC-SVG-20010904/DTD/svg10.dtd">
<svg version="1.0" xmlns="http://www.w3.org/2000/svg"
 width="1064.000000pt" height="1064.000000pt" viewBox="0 0 1064.000000 1064.000000"
 preserveAspectRatio="xMidYMid meet">
<metadata>
Created by potrace 1.14, written by Peter Selinger 2001-2017
</metadata>
<g transform="translate(0.000000,1064.000000) scale(0.100000,-0.100000)"
fill="#000000" stroke="none">
<path d="M2041 5318 c0 -2928 3 -5316 7 -5308 4 8 52 83 107 165 55 83 102
154 104 160 2 5 8 14 13 20 19 21 398 598 398 605 0 4 7 13 15 20 9 7 23 28
31 46 9 19 20 34 25 34 5 0 9 4 9 9 0 8 85 139 108 166 5 6 11 15 13 20 2 6
37 58 77 117 39 59 72 112 72 118 0 5 4 10 8 10 5 0 15 12 23 27 8 16 17 30
20 33 12 11 149 221 149 229 0 5 4 11 9 13 4 2 48 64 97 138 49 74 91 137 94
140 3 3 68 100 145 215 77 116 142 212 145 215 3 3 36 52 75 110 38 58 72 107
75 110 3 3 18 25 34 49 34 53 26 43 119 156 83 101 213 225 235 225 5 0 17 8
28 19 31 28 122 57 190 60 101 4 226 -49 332 -142 132 -114 462 -463 619 -654
28 -34 56 -68 62 -75 6 -7 23 -26 37 -43 14 -16 37 -46 52 -65 15 -19 29 -37
32 -40 3 -3 21 -25 40 -50 19 -25 39 -50 45 -56 5 -6 21 -26 35 -44 14 -18 63
-81 109 -139 46 -58 92 -117 102 -131 10 -14 46 -60 79 -102 33 -43 60 -80 60
-83 0 -3 10 -17 23 -30 12 -13 40 -49 62 -81 22 -31 45 -62 50 -68 6 -6 41
-51 77 -101 152 -206 256 -348 308 -421 30 -42 61 -82 68 -90 6 -7 12 -15 12
-18 0 -3 7 -14 15 -23 8 -10 83 -115 167 -233 83 -118 154 -217 157 -220 3 -3
28 -39 56 -80 27 -41 57 -83 66 -93 9 -10 25 -33 35 -52 10 -19 22 -35 26 -35
9 0 -51 115 -84 163 -11 15 -16 27 -13 27 3 0 -2 12 -13 28 -17 24 -61 105
-133 242 -13 24 -30 50 -36 58 -7 7 -13 18 -13 24 0 5 -9 22 -20 38 -11 15
-17 30 -13 34 3 3 1 6 -5 6 -7 0 -12 4 -12 8 0 5 -41 83 -91 173 -50 90 -108
196 -128 234 -21 39 -49 90 -63 115 -14 25 -40 72 -58 105 -18 33 -52 94 -75
135 -38 67 -103 188 -152 282 -10 18 -20 35 -23 38 -6 5 -36 60 -90 165 -17
32 -35 64 -39 70 -4 5 -26 44 -48 85 -22 41 -67 122 -99 180 -61 112 -97 177
-135 250 -13 25 -26 47 -29 50 -3 3 -16 25 -29 50 -27 50 -112 208 -152 279
-14 25 -38 70 -53 99 -16 29 -32 55 -37 58 -5 3 -7 10 -4 15 4 5 2 9 -3 9 -5
0 -12 8 -15 18 -6 16 -29 60 -114 212 -80 144 -175 319 -193 355 -8 17 -17 32
-20 35 -3 3 -12 19 -20 35 -8 17 -54 95 -102 173 l-88 144 17 29 c10 16 21 29
25 29 4 0 8 4 8 10 0 8 27 52 100 160 9 14 45 72 79 130 35 58 70 116 79 130
9 14 17 27 17 30 0 3 12 23 26 45 21 32 194 331 279 480 9 17 45 80 79 140 35
61 67 116 73 123 6 6 7 12 3 12 -5 0 -1 8 7 18 9 9 31 45 50 80 40 76 55 103
89 162 15 25 43 77 64 115 21 39 46 84 55 100 10 17 32 57 50 90 37 68 85 156
110 200 58 105 86 154 107 195 13 25 28 52 33 60 12 19 91 165 155 285 26 50
55 104 65 120 20 35 94 171 124 230 12 22 23 42 26 45 3 3 17 28 31 56 15 28
49 94 77 145 28 52 62 116 76 143 14 27 31 55 37 62 6 8 8 14 4 14 -4 0 -1 7
6 17 14 17 44 70 101 183 18 36 35 67 38 70 3 3 27 48 54 100 27 52 52 100 56
105 4 6 34 62 68 125 33 63 81 153 107 200 25 47 58 110 73 140 15 30 29 57
32 60 3 3 20 34 39 70 64 125 134 255 149 278 8 12 11 22 7 22 -3 0 2 12 13
28 10 15 49 86 87 157 37 72 82 157 100 190 71 132 126 235 180 340 66 127
137 262 205 390 26 50 69 131 95 180 26 50 52 96 57 103 6 6 7 12 2 12 -5 0
-4 4 1 8 6 4 30 45 54 92 24 47 65 127 93 178 l49 92 -733 0 -733 0 -27 -60
c-15 -33 -27 -63 -27 -67 1 -3 -3 -9 -8 -12 -10 -6 -70 -130 -71 -145 0 -5 -4
-12 -9 -15 -4 -3 -77 -145 -162 -316 -1322 -2661 -1391 -2799 -1391 -2812 0
-6 -3 -13 -7 -15 -5 -1 -28 -46 -53 -98 -25 -52 -48 -96 -52 -98 -5 -2 -8 -12
-8 -23 0 -10 -4 -19 -10 -19 -5 0 -9 -3 -8 -7 1 -5 -56 -125 -127 -268 -71
-143 -130 -262 -130 -265 -1 -3 -89 -183 -197 -400 -291 -589 -318 -645 -318
-657 0 -6 -4 -13 -8 -15 -4 -1 -36 -61 -71 -133 -34 -71 -66 -137 -71 -145 -4
-8 -39 -78 -77 -154 -37 -76 -73 -148 -79 -160 -7 -12 -27 -50 -45 -86 -63
-122 -121 -225 -130 -228 -5 -2 -9 -9 -9 -16 0 -6 -10 -20 -22 -30 -20 -18
-44 -19 -350 -20 -231 -1 -328 2 -328 10 0 6 13 37 29 70 16 32 51 106 79 164
27 58 71 150 97 205 26 55 56 120 68 145 11 25 40 86 64 136 23 51 43 97 43
103 0 6 5 11 10 11 6 0 10 5 10 11 0 6 18 50 41 97 87 185 118 250 155 327 21
44 39 82 39 85 1 3 20 45 43 93 23 49 42 92 42 98 0 5 5 9 10 9 6 0 10 6 10
13 0 7 9 29 20 50 11 20 20 44 20 52 0 8 5 15 10 15 6 0 10 4 10 9 0 10 38 93
144 314 36 76 66 140 66 142 0 2 32 69 70 150 99 206 140 295 140 306 0 5 5 9
10 9 6 0 10 8 10 18 0 9 7 26 15 36 8 11 15 28 15 38 0 10 5 18 10 18 6 0 10
5 10 10 0 6 22 57 49 113 108 228 131 278 131 287 0 6 5 10 10 10 6 0 10 6 10
14 0 8 17 49 39 92 21 44 49 102 61 129 12 28 49 106 82 175 33 69 71 150 85
180 14 30 48 102 75 160 28 58 66 139 86 180 20 41 36 77 37 80 0 3 7 16 15
30 8 14 15 27 15 30 2 8 61 136 171 365 23 50 59 126 80 170 20 44 68 145 105
223 38 79 69 145 69 147 0 2 32 70 71 152 39 81 86 180 104 218 18 39 56 120
85 180 29 61 64 135 78 165 14 30 53 114 87 185 68 143 90 191 99 218 5 16
-100 17 -2114 17 l-2120 0 1 -5322z"/>
</g>
</svg>
